<svg aria-hidden="true" style="width:0;height:0;position:absolute;overflow:hidden" xmlns="http://www.w3.org/2000/svg"><defs><symbol id="icon-home-1" viewBox="0 0 35 32"><path fill="#d31342" style="fill:var(--color1,#d31342)" d="M34.473 15.38a1.482 1.482 0 0 0-.133-2.217l-.003-.002L18.736.425A2.037 2.037 0 0 0 17.486 0c-.489 0-.938.171-1.291.457l.004-.003L.545 13.836a1.47 1.47 0 0 0-.077 2.222l.001.001.393.378c.649.634 1.702.71 2.348.169l1.169-.977v14.31c0 .876.765 1.588 1.705 1.588h6.1c.943 0 1.705-.713 1.705-1.588v-10.01h7.782v10.046c0 .856.694 1.551 1.551 1.551l.052-.001h-.003 6.467c.94 0 1.702-.71 1.702-1.588V15.834s.326.262.724.591c.396.326 1.233.064 1.865-.585l.445-.457z"/></symbol><symbol id="icon-quotemark" viewBox="0 0 43 32"><path fill="#e1e1e1" style="fill:var(--color2,#e1e1e1)" d="M32.014 0c1.928 0 3.75.52 5.464 1.561s3.107 2.537 4.178 4.488c1.029 1.951 1.543 4.25 1.543 6.894s-.643 5.225-1.928 7.74c-.429.91-1.2 2.081-2.315 3.512a63.65 63.65 0 0 1-3.214 3.707L31.692 32l-2.893-4.813a22.225 22.225 0 0 0 5.306-4.646l.03-.037c1.542-1.821 2.314-3.49 2.314-5.008 0-.781-.171-1.41-.514-1.886a8.361 8.361 0 0 1-5.014 1.626c-1.328 0-2.593-.412-3.793-1.236a8.638 8.638 0 0 1-2.935-3.078l-.022-.043c-.771-1.258-1.157-2.558-1.157-3.902 0-1.518.45-2.97 1.35-4.358a10.313 10.313 0 0 1 3.364-3.356l.044-.025C29.142.414 30.556.002 32.014.002zM8.936 0c1.928 0 3.75.52 5.464 1.561s3.107 2.536 4.178 4.488c1.029 1.951 1.543 4.25 1.543 6.894 0 1.864-.236 3.534-.707 5.008-.472 1.518-1.286 3.1-2.443 4.748-1.114 1.561-2.164 2.862-3.15 3.902-.986 1.084-2.7 2.883-5.143 5.398l-2.893-4.813a22.225 22.225 0 0 0 5.306-4.646l.03-.037c1.542-1.821 2.314-3.49 2.314-5.008 0-.781-.172-1.41-.514-1.886a8.361 8.361 0 0 1-5.014 1.626c-1.328 0-2.593-.412-3.793-1.236a8.638 8.638 0 0 1-2.935-3.078l-.022-.043C.386 11.62 0 10.32 0 8.976c0-1.518.429-2.97 1.286-4.358A10.313 10.313 0 0 1 4.65 1.262l.045-.025C6.065.413 7.479.001 8.937.001z"/></symbol></defs></svg>